<svg id="Layer_1" data-name="Layer 1" xmlns="http://www.w3.org/2000/svg" viewBox="0 0 192.76 192.76"><defs><style>.cls-1{fill:#fff;}.cls-1,.cls-2,.cls-3{fill-rule:evenodd;}.cls-2{fill:#2f318e;}.cls-3{fill:#7f8fbf;}</style></defs><title>T__Rowe_Price</title><polygon class="cls-1" points="0 0 192.76 0 192.76 192.76 0 192.76 0 0 0 0"/><path class="cls-2" d="M321.38,314.15a9.41,9.41,0,0,1,1.07,4.42l-1.63,1.26-9.46-.33a8.42,8.42,0,0,0,.33,2.79,5.53,5.53,0,0,0,3.31,4,7,7,0,0,0,5.68-.37l0.14,1.26a8.85,8.85,0,0,1-8.29,1.77,7.83,7.83,0,0,1-3.63-2.24,8.51,8.51,0,0,1-2.1-3.91c-0.7-4.7.47-8.29,3.54-10.53a8.69,8.69,0,0,1,7.17-1,6.79,6.79,0,0,1,3.87,2.93h0Zm-7.69-1.4c-1.3.79-2,2.52-2,5.12h6.1a5.52,5.52,0,0,0-1.07-4.47,2.27,2.27,0,0,0-3-.65h0Zm-7.22,1.72-3.82,14.58h-2.79l-1.54-5.12a29.28,29.28,0,0,0-1.72-5l-3.07,10.15h-2.89l-0.56-1.4-3.73-13.74a1.15,1.15,0,0,0-.93-0.7l-1.16-.14L284,311.92h9.55L293.2,313l-1,.42c-0.37.23-.47,1.07-0.14,2.56l1.26,5.12,2.84-8.94V312h3.45l2.93,9.36,0.37-1.16,1.26-6.66-1.4-.7-0.37-1h6.8l-0.28,1-1.49.37a1.33,1.33,0,0,0-.93,1.26h0ZM336,302.83q4.33,0,6,1.4a5.19,5.19,0,0,1,1.91,4.29,7.61,7.61,0,0,1-.47,3.54l2.66-.7v3.12c2-2.33,3.87-3.35,6-3l-0.75,5.92-1.26-.19a2.43,2.43,0,0,0-1.54-2.14,1.86,1.86,0,0,0-2.33,1.21V327a0.67,0.67,0,0,0,.75.7l1.26,0.23,0.37,1.16h-9.6l0.51-1.07c1.26-.37,2-0.84,2-1.26l-0.19-11.46a10.22,10.22,0,0,1-5.12,1.44l-2.56-.23-0.84-1.4c2.79,0.19,4.66-.7,5.5-2.56a6.79,6.79,0,0,0-.28-6.34,2.62,2.62,0,0,0-2.42-1.4h-2.79a1.06,1.06,0,0,0-1,.74V327a1.46,1.46,0,0,0,1,.7h1.3l0.47,1.4H323.61l0.56-1.4h1.49a1.16,1.16,0,0,0,.84-1.07v-21.1c-0.09-.65-0.79-0.93-2-1l-0.65-1.63H336Zm21.43,8.48v15.74a1.52,1.52,0,0,0,.88.56l1.07,0.14,0.56,1.3h-9.32l0.61-1.07c1-.47,1.63-0.84,1.72-1.26V312l4.47-.7h0Zm-2.24-6.06a2.36,2.36,0,0,0-1.77.75,2.47,2.47,0,0,0-.65,1.72,2.14,2.14,0,0,0,2.42,2.47,2.19,2.19,0,0,0,2.47-2.47,2.74,2.74,0,0,0-.7-1.72,2.36,2.36,0,0,0-1.77-.75h0Zm17.56,6.52-0.93,5.59-1.35-.19-0.61-2.61a3.41,3.41,0,0,0-2-2c-1.3-.37-2.47.33-3.54,2a8.29,8.29,0,0,0-1,5.4,9.25,9.25,0,0,0,2.33,5.22,5.08,5.08,0,0,0,4.56,1.54,7.81,7.81,0,0,0,2.79-1l0.33,1.4c-2,1.91-4.89,2.61-8.52,1.91a6.9,6.9,0,0,1-4-2.24,7.76,7.76,0,0,1-2.1-3.73c-1-3.82-.33-7,2.1-9.55a10,10,0,0,1,5.64-2.47,11.67,11.67,0,0,1,6.24.7h0Zm6.57,1c-1.3.79-2,2.52-2,5.12h6.06a5.52,5.52,0,0,0-1.07-4.47,2.22,2.22,0,0,0-3-.65h0Zm7.64,1.4a9.41,9.41,0,0,1,1.07,4.42l-1.63,1.26-9.41-.33a7.74,7.74,0,0,0,.33,2.79,5.28,5.28,0,0,0,3.26,4,7,7,0,0,0,5.68-.37l0.14,1.26a8.82,8.82,0,0,1-8.24,1.77,8.09,8.09,0,0,1-3.73-2.24,8.29,8.29,0,0,1-2-3.91c-0.7-4.7.47-8.29,3.49-10.53a8.61,8.61,0,0,1,7.13-1,6.91,6.91,0,0,1,3.91,2.93h0Zm-164.15-3.77,1.12-6.75h20.54l0.23,6.57h-1.4l-0.51-2.61a2.16,2.16,0,0,0-1.58-1.72h-4.66v21.52c0.09,0.37.88,0.61,2.19,0.7l0.61,1.3H228.54l0.51-1.07,1.26-.09a1.41,1.41,0,0,0,.93-0.84V305.86h-4.19c-1.3.14-2.33,1.63-3.17,4.52h-1.12Zm25.39-5.59c1.49,0,2.28.23,2.33,0.74V327a1.09,1.09,0,0,1-.93,1l-1.3.23-0.37,1.16H258.4l-0.61-1.3-1.3-.09a1.11,1.11,0,0,1-.79-0.84V305.72a0.53,0.53,0,0,1,.37-0.56l3.49,0.09c1.35,0.14,2.19.51,2.56,1.21a6.89,6.89,0,0,1,.89,3.26,5.49,5.49,0,0,1-.56,3.45,4.11,4.11,0,0,1-2.56,1.86l-3.26.23,0.09,1.4a2.29,2.29,0,0,1,1.44.93l3.59,6.52a23.81,23.81,0,0,0,4.29,6.06c1.63,1.3,4,1.63,7,.93L272.93,330a4.23,4.23,0,0,1-2.47-1.77L263,316a7.25,7.25,0,0,0,4.42-2.89,6.17,6.17,0,0,0,.93-5c-0.56-3.12-2.79-4.66-6.61-4.66H247.69l0.47,1.4h0Zm36,9.32a9.45,9.45,0,0,1,2.1,6.43,10.14,10.14,0,0,1-2.1,6.61,8.23,8.23,0,0,1-6.43,2.61,7.87,7.87,0,0,1-6.38-2.61,9.72,9.72,0,0,1-2.24-6.61,9.24,9.24,0,0,1,2.14-6.43,8.14,8.14,0,0,1,6.47-2.75,8,8,0,0,1,6.43,2.75h0ZM277.5,313a3.68,3.68,0,0,0-2.79,2.56l-0.51,4.05c-0.09,3.49.23,5.92,0.93,7.22a2.78,2.78,0,0,0,2.93,1.49,2.75,2.75,0,0,0,2.33-1.82,22.24,22.24,0,0,0,.84-5.73,17.68,17.68,0,0,0-.75-5.68,2.55,2.55,0,0,0-3-2.1h0Zm-31.68,14.44c0-1.63-.74-2.38-2.33-2.38s-2.47.75-2.47,2.38a2.23,2.23,0,0,0,2.47,2.52c1.58,0,2.33-.89,2.33-2.52h0Z" transform="translate(-209 -300)"/><path class="cls-3" d="M321.74,358.75c0.61-.47.79-1.4,0.37-2.75l-7.45-4.1c5.82,0,9.88,2,12.3,5.73,1.91,4.19,2.7,10.11,2.38,17.65-0.23,9.08,0,15.28.56,18.45,0.47,1.49,1.54,1.86,3.26,1.16,1.3-.37,2.33-2.14,3-5.36,0.56-2.56,1.86-3.54,4.05-3,2.24,1.63,2.79,5.08,1.68,10.43-1.63,5.17-4.8,8.29-9.6,9.22a14.51,14.51,0,0,1-10.81-2c-3.17-2.51-5.5-7.41-6.85-14.63L313,388.38l-1.54.42,6,17.61q6.43,14.81,5.12,33.68a83.07,83.07,0,0,1-8.85,32.61l-5.4,8.24c3.31-.23,7.59-3.82,12.62-10.62a3,3,0,0,1,1.35,2.38l0.7,3.82c2.7-2.89,4.1-7.55,4.1-14,0.56-16.77.14-29-1.16-36.71,8.15,11.46,11.74,25.9,10.62,43.23,2.56-1.4,4.38-4.05,5.36-8,0.89-4.89-.93-12.39-5.36-22.41Q361,455.06,365.2,474.08l1,6.06,0.93-3.63a25.74,25.74,0,0,0-2-12.81,25.3,25.3,0,0,0-8.06-11.88,55.1,55.1,0,0,1,19.1,12.72c6.15,6.38,9.18,13.23,9,20.45v4.8l-116.36.14a11.54,11.54,0,0,0-4.05-9.36c-2.93-3-4.66-7.08-5.17-12.44-0.42-1.86-.33-6,0.37-12.44,0.93,1.72,2.89,3,5.73,4.05L265,458.48c-3.21-9.55-4.43-16.12-3.59-19.84l2.24-20.22c0.89-8.15,3.45-14.21,7.64-18,2.93-2.89,4-6.06,3.31-9.64-0.61-2.56-3.17-4.29-7.59-5.12s-6.89-2.8-7.59-6l-0.19-.56a13.42,13.42,0,0,0-7.92,10c-0.61,4.66.42,7,3.12,7,1.63,0.23,2.79-.7,3.59-2.89v-2.84a1.56,1.56,0,0,1,1.77-1.63,4.47,4.47,0,0,1,4.43,3.31,11.76,11.76,0,0,1-2,11.88,14.11,14.11,0,0,1-13.28,4.84c-5.82-1-10.11-4.42-12.81-10.25a35.05,35.05,0,0,1-2-17.42,38.07,38.07,0,0,1,5.68-16.3q7.48-10,17.84-12.58l-2.38,2.19a2.05,2.05,0,0,0-.65,2.79l0.65,0.61L260,354l5-3.17,3.49-.19-4.29,3c-1.72,1.21-2.42,2.61-2.19,4.24l0.79,0.89L273,351.67l3.68,0.23-5,3.35c-2.1,1.44-3.12,2.93-3.17,4.42l0.74,1.07,1.35-.7,9.92-6.52,2.89,0.79-6,4c-2.38,1.63-3.4,3-3.17,4.38l0.79,0.84,11.88-7.13,2.38,1.21-5.59,3.91c-2.33,1.3-3.4,2.93-3.17,4.8a1.49,1.49,0,0,0,1.3,1.16l11.51-7.45,2.79,1.49a2.06,2.06,0,0,0,2.56-.7,41.13,41.13,0,0,1,14.3,6.29,2.65,2.65,0,0,0,0-3.21c-1.91-2.1-5.82-4-11.69-5.5l1.21-1.54c4.15,0.14,9.08,2,14.91,5.59a1.78,1.78,0,0,0,.33-2.42c-1.54-1.72-5.22-3.63-10.85-5.73l2.56-1.12,6.66,2.42,5.59,3.12h0Zm-8.38,22.13c-0.56.51-.37,1.07,0.37,1.44l3-.37c2.84-1.26,3.87-2.42,3.17-3.49-1.16-.84-3.35-0.09-6.52,2.42h0ZM313,376.36l-1.26-2.42c-5.22-5.82-10.57-9-15.93-9.6l-6.52,4.47c-2.38,2.19-3.54,4.43-3.49,6.85-0.23,1.3.79,2.42,3.12,3.12,2.7,0.74,4.52.23,5.36-1.63,0.79-2.33,2-3.68,3.59-3.91v-4.43a1.23,1.23,0,0,1,2,.7l3.12,3.73a7.39,7.39,0,0,1,4,2.33l1.63,2.79c0.61,1,1.3,1.49,2.1,1.35a4,4,0,0,0,2.33-3.35h0ZM311.35,394a10.61,10.61,0,0,1-5.59-7.45l-1.86-9c-0.89-2.65-2.33-3.4-4.43-2.42-2.1,1.49-2.28,3.49-.42,6.24,2.1,3.17,2.89,5.64,2.28,7.45-0.23.37-1.35,0.75-3.12,1.3-3.26,1.3-4.89,4.19-4.89,8.48l0.93,2.33,3.17,0.28h4.42c2.33-.23,3.45-1.16,3.21-2.79a2.17,2.17,0,0,0-2.52-1.44l-3.26.37a1.81,1.81,0,0,1-.74-2.56c0.74-1.49,2.24-2.24,4.42-2.24l6.1,0.75c1,0.33,1.35,1.26,1.12,2.89l-0.7,1.16-1.16-.14-0.88,4,2.75,0.56q1.12-.14,1.68-3.63c0.23-2.1.09-3.49-.51-4.15h0Zm-26.74-14.81a4,4,0,0,0-4.1-2l-2.33,1.63c-0.61,2.24.47,5.17,3.26,8.9,1.77,1.82,3.4,2.42,5,1.86a7.27,7.27,0,0,0,3.21-4.8c-5.08.23-8.15-.37-9.18-1.86a2.19,2.19,0,0,1,.79-3.35l4,0.56-0.7-.93h0Zm-20.87-2.65c1.63,3.68,4.42,4.66,8.48,3l-0.42-.74c-1.91-3.12-4.43-4.43-7.36-4.05l-0.7,1.77h0ZM308.33,404l-6.06-.75-6.47.51v0.42c1.35,1.86,4.52,2.8,9.55,2.8,2.1-1.12,3.12-2.1,3-3h0Z" transform="translate(-209 -300)"/></svg>